<svg id="svg" xmlns="http://www.w3.org/2000/svg" xmlns:xlink="http://www.w3.org/1999/xlink" width="400" height="400" viewBox="0, 0, 400,400">
	<g id="svgg">
		<path id="path0" d="M180.469 0.530 C 13.572 17.637,-60.248 219.799,56.608 339.734 C 164.935 450.917,355.168 400.807,393.818 250.908 C 428.625 115.913,318.270 -13.594,180.469 0.530 M137.934 131.271 C 149.660 136.947,155.018 151.909,149.622 163.907 C 138.494 188.645,101.868 180.657,101.979 153.516 C 102.054 135.034,121.216 123.178,137.934 131.271 M285.046 131.654 C 307.193 143.720,299.785 177.123,274.609 178.715 C 264.311 179.366,255.460 174.075,250.712 164.431 C 240.254 143.188,264.222 120.307,285.046 131.654 M112.109 243.911 C 164.763 259.656,235.154 259.658,287.891 243.916 C 313.604 236.240,318.690 245.646,304.276 274.219 C 262.556 356.917,116.462 347.828,90.353 260.909 C 84.489 241.387,89.798 237.239,112.109 243.911 " stroke="none" fill="#8f8f8f" fill-rule="evenodd">
		</path>
	</g>
</svg>
