<svg id="svg" xmlns="http://www.w3.org/2000/svg" xmlns:xlink="http://www.w3.org/1999/xlink" width="400" height="400" viewBox="0, 0, 400,400" version="1.1"><g id="svgg"><path id="path0" d="M158.750 46.157 C 146.520 48.376,136.763 55.852,131.182 67.277 C 130.552 68.568,129.956 69.963,129.858 70.375 C 129.761 70.787,129.582 71.251,129.462 71.405 C 129.341 71.559,128.963 73.005,128.621 74.619 L 128.000 77.552 128.002 129.838 L 128.003 182.125 127.463 184.500 C 126.490 188.780,124.309 190.992,120.116 191.950 L 117.857 192.467 115.491 191.908 C 114.190 191.601,112.112 190.861,110.875 190.264 C 103.828 186.865,102.732 186.625,94.250 186.625 C 85.554 186.625,83.330 187.178,76.091 191.140 C 69.427 194.787,62.382 203.135,59.754 210.500 C 59.582 210.981,59.296 211.713,59.119 212.125 C 57.697 215.434,57.208 226.252,58.255 231.250 C 59.486 237.124,61.611 241.270,67.290 248.875 C 69.652 252.037,75.369 259.688,79.995 265.875 C 84.622 272.063,90.586 280.050,93.251 283.625 C 95.915 287.200,98.565 290.688,99.140 291.375 C 100.134 292.563,114.853 312.168,129.358 331.625 C 137.597 342.677,141.091 346.318,145.985 348.954 C 148.720 350.427,150.862 351.430,152.500 352.003 C 152.981 352.171,153.713 352.453,154.125 352.630 C 154.537 352.806,156.096 353.187,157.589 353.475 L 160.302 354.000 230.354 354.000 C 307.272 354.000,301.881 354.096,305.125 352.670 C 311.045 350.067,314.898 346.871,317.688 342.250 C 319.173 339.791,319.290 339.544,320.344 336.625 C 320.873 335.161,337.647 268.271,338.839 262.875 C 339.646 259.218,340.045 257.038,340.386 254.423 C 340.580 252.937,340.802 251.619,340.879 251.494 C 340.956 251.369,341.187 249.379,341.391 247.071 C 341.596 244.763,341.877 241.643,342.014 240.137 C 342.170 238.436,342.233 227.069,342.180 210.137 C 342.090 180.842,342.093 180.927,340.786 178.313 C 340.666 178.072,340.027 176.750,339.366 175.375 C 335.616 167.563,328.957 161.279,321.750 158.749 C 321.269 158.580,320.529 158.290,320.105 158.104 C 317.329 156.888,307.082 156.882,302.589 158.094 C 299.801 158.846,294.006 156.403,292.446 153.818 C 290.649 150.842,280.974 144.000,278.561 144.000 C 278.426 144.000,277.616 143.777,276.762 143.504 C 272.003 141.983,261.863 142.131,257.426 143.786 C 256.298 144.206,254.098 144.897,252.536 145.320 L 249.698 146.089 247.161 145.519 C 244.425 144.904,244.551 144.977,239.427 141.020 C 238.218 140.087,236.924 139.170,236.552 138.982 C 236.180 138.794,235.396 138.321,234.810 137.931 C 234.224 137.541,233.380 137.105,232.935 136.962 C 232.235 136.737,230.956 136.189,229.459 135.472 C 227.045 134.315,224.152 133.922,217.750 133.879 C 208.442 133.817,206.221 133.154,203.772 129.704 C 201.746 126.850,201.746 126.847,201.748 101.177 C 201.750 82.832,201.685 78.400,201.396 76.927 C 201.202 75.936,200.966 74.675,200.874 74.125 C 200.781 73.575,200.490 72.653,200.227 72.076 C 199.965 71.499,199.750 70.881,199.750 70.703 C 199.750 70.287,197.120 64.939,196.271 63.628 C 192.320 57.529,186.291 51.997,180.625 49.270 C 179.938 48.940,179.076 48.518,178.711 48.334 C 178.346 48.150,177.896 47.999,177.711 47.998 C 177.526 47.998,177.039 47.822,176.628 47.607 C 174.346 46.417,162.576 45.462,158.750 46.157 M167.826 59.822 C 169.174 59.899,170.412 60.065,170.576 60.192 C 170.741 60.319,171.427 60.572,172.102 60.755 C 173.195 61.051,174.182 61.504,176.599 62.821 C 178.793 64.017,184.250 69.480,184.250 70.481 C 184.250 70.629,184.349 70.750,184.471 70.750 C 184.592 70.750,184.757 70.947,184.838 71.188 C 184.918 71.428,185.305 72.193,185.696 72.887 C 186.088 73.581,186.364 74.284,186.309 74.449 C 186.253 74.615,186.320 74.750,186.457 74.750 C 186.594 74.750,186.782 75.199,186.875 75.749 C 186.968 76.298,187.141 76.808,187.261 76.882 C 187.380 76.956,187.414 77.183,187.336 77.386 C 187.258 77.590,187.331 77.922,187.499 78.123 C 187.673 78.334,187.861 79.619,187.938 81.128 C 188.012 82.579,188.169 83.825,188.287 83.898 C 188.406 83.972,188.501 107.318,188.498 136.078 L 188.495 188.125 191.356 188.195 L 194.217 188.266 194.296 177.296 C 194.352 169.582,194.459 166.222,194.659 165.976 C 194.816 165.783,195.024 165.119,195.123 164.500 C 195.221 163.881,195.472 162.981,195.681 162.500 C 196.582 160.423,197.401 158.822,197.931 158.101 C 198.244 157.676,198.500 157.251,198.500 157.156 C 198.500 157.062,198.894 156.639,199.375 156.216 C 199.856 155.794,200.250 155.324,200.250 155.172 C 200.250 154.853,202.002 153.000,202.304 153.000 C 202.416 153.000,203.105 152.513,203.837 151.917 C 205.111 150.879,208.968 148.752,209.581 148.748 C 209.743 148.748,210.186 148.585,210.567 148.386 C 212.618 147.316,221.529 147.209,223.875 148.226 C 224.150 148.345,224.881 148.595,225.500 148.781 C 228.053 149.547,231.724 151.997,233.991 154.446 C 236.170 156.801,236.250 156.895,236.250 157.100 C 236.250 157.201,236.531 157.652,236.875 158.103 C 237.219 158.553,237.500 159.052,237.500 159.211 C 237.500 159.370,237.594 159.500,237.710 159.500 C 237.825 159.500,238.068 159.950,238.250 160.500 C 238.432 161.050,238.662 161.500,238.763 161.500 C 238.863 161.500,239.023 161.809,239.117 162.188 C 239.211 162.566,239.440 163.213,239.625 163.625 C 240.049 164.568,240.500 166.759,240.500 167.873 C 240.500 168.339,240.613 168.790,240.750 168.875 C 240.910 168.974,241.000 172.503,241.000 178.640 L 241.000 188.250 243.839 188.250 L 246.678 188.250 246.804 180.802 C 246.880 176.359,247.036 173.157,247.192 172.865 C 247.335 172.595,247.578 171.756,247.731 171.000 C 248.024 169.549,249.654 166.014,250.186 165.675 C 250.359 165.565,250.500 165.314,250.500 165.116 C 250.500 164.704,255.332 159.750,255.734 159.750 C 255.880 159.750,256.533 159.370,257.187 158.905 C 257.840 158.441,258.656 157.977,259.000 157.875 C 259.344 157.774,260.075 157.490,260.625 157.245 C 261.175 157.000,262.386 156.719,263.316 156.620 C 264.246 156.522,265.068 156.342,265.143 156.221 C 265.322 155.932,269.129 155.934,269.691 156.224 C 269.930 156.347,270.969 156.576,272.000 156.733 C 273.655 156.985,275.344 157.559,276.500 158.264 C 276.706 158.390,277.212 158.647,277.625 158.835 C 278.038 159.024,278.938 159.683,279.625 160.300 C 280.313 160.918,281.128 161.557,281.438 161.720 C 281.747 161.884,282.000 162.136,282.000 162.281 C 282.000 162.426,282.542 163.153,283.205 163.897 C 284.697 165.571,286.686 169.455,286.911 171.132 C 287.002 171.816,287.200 172.455,287.351 172.553 C 287.537 172.674,287.653 175.229,287.712 180.491 L 287.798 188.250 290.861 188.250 L 293.925 188.250 294.083 185.841 C 294.239 183.466,294.941 181.554,296.826 178.369 C 297.793 176.734,302.426 172.873,303.972 172.413 C 304.469 172.266,304.938 172.057,305.014 171.949 C 305.090 171.841,305.822 171.632,306.639 171.484 C 307.456 171.335,308.320 171.110,308.559 170.982 C 309.151 170.665,313.500 170.681,313.500 171.000 C 313.500 171.137,313.866 171.251,314.313 171.251 C 317.668 171.257,324.727 176.242,326.128 179.594 C 326.328 180.073,326.591 180.527,326.712 180.601 C 326.833 180.676,327.079 181.274,327.260 181.931 C 327.440 182.588,327.666 183.181,327.762 183.250 C 328.077 183.476,328.500 185.993,328.500 187.637 C 328.500 188.546,328.609 189.250,328.750 189.250 C 328.915 189.250,329.000 195.995,329.000 208.985 C 329.000 221.872,328.913 228.774,328.750 228.875 C 328.601 228.967,328.500 230.594,328.500 232.915 C 328.500 237.566,328.064 245.176,327.758 245.875 C 327.638 246.150,327.408 247.781,327.248 249.500 C 327.088 251.219,326.873 252.738,326.770 252.875 C 326.667 253.012,326.435 254.250,326.255 255.625 C 326.074 257.000,325.854 258.181,325.765 258.250 C 325.676 258.319,325.456 259.275,325.277 260.375 C 325.097 261.475,324.867 262.488,324.765 262.625 C 324.663 262.762,324.436 263.719,324.261 264.750 C 324.085 265.781,323.857 266.738,323.754 266.875 C 323.650 267.012,323.424 267.913,323.250 268.875 C 323.076 269.837,322.850 270.738,322.748 270.875 C 322.645 271.012,322.427 271.910,322.263 272.870 C 322.099 273.830,321.873 274.730,321.761 274.870 C 321.649 275.010,321.422 275.940,321.256 276.937 C 321.091 277.933,320.861 278.807,320.745 278.878 C 320.630 278.949,320.458 279.626,320.363 280.382 C 320.269 281.138,320.090 281.819,319.967 281.896 C 319.843 281.972,319.810 282.144,319.892 282.278 C 319.975 282.412,319.933 282.658,319.800 282.823 C 319.666 282.989,319.477 283.715,319.380 284.437 C 319.283 285.159,319.099 285.814,318.973 285.892 C 318.846 285.970,318.810 286.144,318.892 286.278 C 318.975 286.412,318.935 286.658,318.803 286.823 C 318.671 286.989,318.482 287.688,318.383 288.375 C 318.284 289.063,318.092 289.761,317.955 289.927 C 317.819 290.092,317.775 290.338,317.858 290.472 C 317.940 290.606,317.907 290.778,317.783 290.854 C 317.660 290.931,317.481 291.612,317.387 292.368 C 317.292 293.124,317.118 293.802,316.998 293.876 C 316.879 293.950,316.782 294.205,316.782 294.442 C 316.783 295.033,316.272 297.261,315.995 297.875 C 315.871 298.150,315.637 299.106,315.474 300.000 C 315.311 300.894,315.097 301.738,314.997 301.875 C 314.897 302.012,314.674 302.913,314.500 303.875 C 314.326 304.837,314.101 305.738,314.000 305.875 C 313.899 306.012,313.674 306.913,313.500 307.875 C 313.326 308.837,313.101 309.738,313.000 309.875 C 312.899 310.012,312.674 310.913,312.500 311.875 C 312.326 312.837,312.101 313.738,312.000 313.875 C 311.899 314.012,311.674 314.913,311.500 315.875 C 311.326 316.837,311.101 317.738,311.000 317.875 C 310.899 318.012,310.674 318.913,310.500 319.875 C 310.326 320.837,310.101 321.738,310.000 321.875 C 309.899 322.012,309.674 322.913,309.500 323.875 C 309.326 324.837,309.101 325.738,309.000 325.875 C 308.899 326.012,308.674 326.913,308.500 327.875 C 308.326 328.837,308.105 329.738,308.008 329.875 C 307.912 330.012,307.694 330.770,307.524 331.558 C 307.355 332.347,307.111 333.056,306.983 333.135 C 306.855 333.215,306.750 333.459,306.750 333.679 C 306.750 333.898,306.469 334.447,306.125 334.897 C 305.781 335.348,305.500 335.804,305.500 335.910 C 305.500 336.201,303.688 337.999,303.387 338.007 C 303.243 338.011,302.683 338.348,302.143 338.757 C 301.603 339.166,300.978 339.500,300.755 339.500 C 300.532 339.500,300.225 339.625,300.073 339.777 C 299.921 339.929,299.051 340.114,298.141 340.187 C 297.231 340.260,296.427 340.416,296.354 340.535 C 296.180 340.815,164.821 340.817,164.648 340.537 C 164.575 340.420,163.383 340.261,161.999 340.185 C 160.615 340.109,159.345 339.940,159.178 339.811 C 159.012 339.681,158.172 339.430,157.313 339.253 C 156.453 339.076,155.750 338.853,155.750 338.756 C 155.750 338.659,155.300 338.432,154.750 338.250 C 154.200 338.068,153.750 337.825,153.750 337.710 C 153.750 337.594,153.620 337.500,153.461 337.500 C 153.302 337.500,152.803 337.219,152.353 336.875 C 151.902 336.531,151.453 336.250,151.355 336.250 C 150.549 336.250,147.342 332.549,142.375 325.885 C 141.688 324.962,140.928 323.992,140.688 323.729 C 140.447 323.465,140.250 323.186,140.250 323.108 C 140.250 322.971,138.422 320.579,137.636 319.688 C 137.424 319.447,137.250 319.186,137.250 319.108 C 137.250 318.971,135.422 316.579,134.636 315.688 C 134.424 315.447,134.250 315.186,134.250 315.108 C 134.250 314.971,132.422 312.579,131.636 311.688 C 131.424 311.447,131.250 311.181,131.250 311.097 C 131.250 311.013,130.800 310.407,130.250 309.750 C 129.700 309.093,129.250 308.432,129.250 308.280 C 129.250 308.128,129.025 307.864,128.750 307.692 C 128.475 307.520,128.250 307.282,128.250 307.162 C 128.250 307.042,127.800 306.407,127.250 305.750 C 126.700 305.093,126.250 304.432,126.250 304.280 C 126.250 304.128,126.025 303.864,125.750 303.692 C 125.475 303.520,125.250 303.282,125.250 303.162 C 125.250 303.042,124.800 302.407,124.250 301.750 C 123.700 301.093,123.250 300.432,123.250 300.280 C 123.250 300.128,123.025 299.864,122.750 299.692 C 122.475 299.520,122.250 299.282,122.250 299.162 C 122.250 299.042,121.800 298.407,121.250 297.750 C 120.700 297.093,120.250 296.432,120.250 296.280 C 120.250 296.128,120.025 295.864,119.750 295.692 C 119.475 295.520,119.250 295.282,119.250 295.162 C 119.250 295.042,118.800 294.407,118.250 293.750 C 117.700 293.093,117.250 292.432,117.250 292.280 C 117.250 292.128,117.025 291.864,116.750 291.692 C 116.475 291.520,116.250 291.282,116.250 291.162 C 116.250 291.042,115.800 290.407,115.250 289.750 C 114.700 289.093,114.250 288.478,114.250 288.383 C 114.250 288.288,113.575 287.385,112.750 286.375 C 111.925 285.365,111.250 284.465,111.250 284.375 C 111.250 284.285,110.575 283.385,109.750 282.375 C 108.925 281.365,108.250 280.465,108.250 280.375 C 108.250 280.285,107.575 279.385,106.750 278.375 C 105.925 277.365,105.250 276.465,105.250 276.375 C 105.250 276.285,104.575 275.385,103.750 274.375 C 102.925 273.365,102.250 272.465,102.250 272.375 C 102.250 272.285,101.575 271.385,100.750 270.375 C 99.925 269.365,99.250 268.462,99.250 268.367 C 99.250 268.272,98.800 267.657,98.250 267.000 C 97.700 266.343,97.250 265.708,97.250 265.588 C 97.250 265.468,97.025 265.230,96.750 265.058 C 96.475 264.886,96.250 264.622,96.250 264.470 C 96.250 264.318,95.800 263.657,95.250 263.000 C 94.700 262.343,94.250 261.708,94.250 261.588 C 94.250 261.468,94.025 261.230,93.750 261.058 C 93.475 260.886,93.250 260.622,93.250 260.470 C 93.250 260.318,92.800 259.657,92.250 259.000 C 91.700 258.343,91.250 257.737,91.250 257.653 C 91.250 257.569,91.076 257.303,90.864 257.063 C 90.078 256.171,88.250 253.779,88.250 253.642 C 88.250 253.564,88.073 253.303,87.857 253.063 C 87.475 252.639,85.986 250.683,82.875 246.520 C 82.050 245.416,80.700 243.623,79.875 242.537 C 79.050 241.451,77.813 239.807,77.125 238.885 C 76.438 237.962,75.706 237.019,75.500 236.788 C 75.294 236.557,74.979 236.088,74.800 235.747 C 74.621 235.405,74.133 234.506,73.715 233.750 C 73.297 232.994,72.845 231.981,72.711 231.500 C 72.578 231.019,72.286 230.231,72.063 229.750 C 71.152 227.783,71.375 218.255,72.377 216.334 C 72.580 215.944,72.748 215.485,72.748 215.314 C 72.750 214.910,74.889 210.787,75.376 210.249 C 75.582 210.022,75.750 209.757,75.750 209.660 C 75.750 209.563,76.200 209.071,76.750 208.565 C 77.300 208.059,77.750 207.536,77.750 207.401 C 77.750 207.062,78.779 206.000,79.108 206.000 C 79.257 206.000,79.740 205.606,80.182 205.125 C 80.623 204.644,81.052 204.250,81.134 204.250 C 81.216 204.250,81.641 203.984,82.079 203.659 C 83.145 202.867,86.412 201.335,87.500 201.117 C 87.981 201.021,88.501 200.841,88.654 200.718 C 89.436 200.090,99.542 200.055,99.972 200.679 C 100.056 200.801,100.744 201.039,101.500 201.208 C 102.992 201.541,107.000 203.413,107.000 203.776 C 107.000 203.899,107.157 204.000,107.348 204.000 C 107.539 204.000,108.259 204.506,108.947 205.125 C 109.635 205.744,110.255 206.250,110.324 206.250 C 110.556 206.250,112.000 207.609,112.000 207.828 C 112.000 207.947,112.618 208.738,113.374 209.585 C 114.130 210.432,114.748 211.262,114.749 211.429 C 114.749 211.596,114.975 211.853,115.250 212.000 C 115.525 212.147,115.750 212.389,115.750 212.537 C 115.750 212.685,116.200 213.343,116.750 214.000 C 117.300 214.657,117.750 215.315,117.750 215.463 C 117.750 215.611,117.975 215.853,118.250 216.000 C 118.525 216.147,118.750 216.389,118.750 216.537 C 118.750 216.685,119.200 217.343,119.750 218.000 C 120.300 218.657,120.750 219.315,120.750 219.463 C 120.750 219.611,120.975 219.853,121.250 220.000 C 121.525 220.147,121.750 220.388,121.750 220.536 C 121.750 220.782,123.187 222.777,124.110 223.813 C 124.324 224.053,124.500 224.319,124.500 224.403 C 124.500 224.487,124.950 225.093,125.500 225.750 C 126.050 226.407,126.500 227.068,126.500 227.220 C 126.500 227.372,126.725 227.636,127.000 227.808 C 127.275 227.980,127.500 228.218,127.500 228.338 C 127.500 228.458,127.950 229.093,128.500 229.750 C 129.050 230.407,129.500 231.068,129.500 231.220 C 129.500 231.372,129.725 231.636,130.000 231.808 C 130.275 231.980,130.500 232.218,130.500 232.338 C 130.500 232.458,130.950 233.093,131.500 233.750 C 132.050 234.407,132.500 235.068,132.500 235.220 C 132.500 235.372,132.725 235.636,133.000 235.808 C 133.275 235.980,133.500 236.218,133.500 236.338 C 133.500 236.458,133.950 237.093,134.500 237.750 C 135.050 238.407,135.500 239.068,135.500 239.220 C 135.500 239.372,135.725 239.636,136.000 239.808 C 136.275 239.980,136.500 240.218,136.500 240.338 C 136.500 240.458,136.950 241.093,137.500 241.750 C 138.050 242.407,138.500 243.068,138.500 243.220 C 138.500 243.372,138.725 243.636,139.000 243.808 C 139.275 243.980,139.504 244.234,139.509 244.373 C 139.515 244.511,139.907 245.075,140.381 245.625 L 141.243 246.625 141.246 164.827 C 141.248 119.831,141.346 82.970,141.464 82.897 C 141.581 82.825,141.738 81.579,141.812 80.128 C 141.886 78.677,142.070 77.342,142.221 77.160 C 142.372 76.978,142.421 76.755,142.331 76.664 C 142.163 76.496,142.257 76.232,143.196 74.250 C 143.489 73.631,143.802 72.816,143.892 72.438 C 143.981 72.059,144.158 71.750,144.285 71.750 C 144.412 71.750,144.588 71.553,144.677 71.313 C 144.766 71.072,145.100 70.527,145.419 70.101 C 145.739 69.676,146.000 69.246,146.000 69.147 C 146.000 69.048,146.394 68.595,146.875 68.141 C 147.356 67.687,147.750 67.224,147.750 67.112 C 147.750 66.819,148.792 65.750,149.077 65.750 C 149.208 65.750,149.687 65.356,150.141 64.875 C 150.595 64.394,151.048 64.000,151.147 64.000 C 151.246 64.000,151.697 63.719,152.147 63.375 C 152.598 63.031,153.090 62.750,153.241 62.750 C 153.392 62.750,153.578 62.588,153.654 62.390 C 153.730 62.192,154.148 61.955,154.583 61.863 C 155.019 61.771,155.713 61.493,156.125 61.244 C 156.537 60.995,157.325 60.712,157.875 60.613 C 158.425 60.515,159.012 60.327,159.178 60.194 C 159.345 60.062,160.615 59.891,161.999 59.815 C 163.383 59.739,164.579 59.575,164.655 59.451 C 164.738 59.318,164.913 59.319,165.085 59.455 C 165.244 59.580,166.478 59.746,167.826 59.822 " stroke="none" fill="#dbcbfb" fill-rule="evenodd"></path><path id="path1" d="M164.487 59.764 C 164.288 59.889,163.515 59.994,162.770 59.996 C 161.144 60.001,158.219 60.469,157.887 60.778 C 157.757 60.900,157.507 61.000,157.332 61.000 C 157.158 61.000,156.400 61.281,155.648 61.625 C 154.897 61.969,154.214 62.250,154.130 62.250 C 154.047 62.250,153.370 62.700,152.625 63.250 C 151.880 63.800,151.194 64.250,151.100 64.250 C 150.689 64.250,146.250 68.698,146.250 69.110 C 146.250 69.216,145.931 69.713,145.541 70.214 C 144.187 71.954,142.848 74.876,142.484 76.888 C 142.335 77.706,142.082 78.600,141.920 78.875 C 141.696 79.255,141.595 99.507,141.500 163.247 L 141.375 247.120 140.172 245.622 C 139.510 244.799,138.807 243.927,138.610 243.685 C 138.412 243.442,138.250 243.182,138.250 243.105 C 138.250 242.988,137.261 241.707,135.610 239.685 C 135.412 239.442,135.250 239.182,135.250 239.105 C 135.250 238.970,133.414 236.570,132.636 235.688 C 132.424 235.447,132.250 235.186,132.250 235.108 C 132.250 234.971,130.422 232.579,129.636 231.688 C 129.424 231.447,129.250 231.186,129.250 231.108 C 129.250 230.971,127.422 228.579,126.636 227.688 C 126.424 227.447,126.250 227.186,126.250 227.108 C 126.250 226.971,124.422 224.579,123.636 223.688 C 123.424 223.447,123.250 223.195,123.250 223.127 C 123.250 223.003,122.753 222.318,119.931 218.547 C 116.727 214.267,115.276 212.362,114.893 211.938 C 114.677 211.697,114.500 211.424,114.500 211.332 C 114.500 211.239,113.938 210.517,113.250 209.727 C 112.563 208.936,112.000 208.214,112.000 208.122 C 112.000 207.873,110.659 206.500,110.416 206.500 C 110.300 206.500,109.586 205.948,108.829 205.274 C 107.397 203.997,103.470 201.861,102.063 201.592 C 101.616 201.507,101.250 201.356,101.250 201.255 C 101.250 200.993,98.032 200.500,96.314 200.500 C 95.509 200.500,94.715 200.365,94.550 200.200 C 94.317 199.967,94.183 199.967,93.950 200.200 C 93.785 200.365,93.018 200.500,92.246 200.500 C 90.718 200.500,88.025 200.930,87.625 201.239 C 87.487 201.344,87.037 201.510,86.625 201.607 C 85.065 201.974,82.294 203.554,80.250 205.243 C 79.906 205.527,79.259 206.048,78.813 206.402 C 78.366 206.755,78.000 207.151,78.000 207.281 C 78.000 207.411,77.645 207.864,77.210 208.289 C 75.745 209.722,73.000 214.244,73.000 215.227 C 73.000 215.346,72.832 215.765,72.627 216.159 C 72.421 216.553,72.182 217.412,72.094 218.068 C 72.006 218.724,71.836 219.322,71.717 219.395 C 71.427 219.575,71.437 226.888,71.728 227.441 C 71.854 227.680,72.092 228.544,72.258 229.363 C 72.423 230.181,72.650 231.024,72.762 231.238 C 72.874 231.451,73.324 232.356,73.762 233.250 C 75.071 235.919,75.465 236.585,75.867 236.811 C 76.078 236.928,76.250 237.144,76.250 237.290 C 76.250 237.436,76.700 238.093,77.250 238.750 C 77.800 239.407,78.250 240.065,78.250 240.213 C 78.250 240.361,78.475 240.603,78.750 240.750 C 79.025 240.897,79.250 241.139,79.250 241.287 C 79.250 241.435,79.700 242.093,80.250 242.750 C 80.800 243.407,81.250 244.065,81.250 244.213 C 81.250 244.361,81.475 244.603,81.750 244.750 C 82.025 244.897,82.250 245.139,82.250 245.287 C 82.250 245.435,82.700 246.093,83.250 246.750 C 83.800 247.407,84.250 248.032,84.250 248.139 C 84.250 248.246,84.419 248.511,84.626 248.729 C 85.353 249.496,87.250 251.969,87.250 252.150 C 87.250 252.251,87.419 252.511,87.626 252.729 C 88.309 253.450,90.250 255.963,90.250 256.128 C 90.250 256.217,90.925 257.115,91.750 258.125 C 92.575 259.135,93.250 260.035,93.250 260.125 C 93.250 260.215,93.925 261.115,94.750 262.125 C 95.575 263.135,96.250 264.035,96.250 264.125 C 96.250 264.215,96.925 265.115,97.750 266.125 C 98.575 267.135,99.250 268.035,99.250 268.125 C 99.250 268.215,99.907 269.096,100.711 270.082 C 101.515 271.068,102.218 271.997,102.273 272.145 C 102.371 272.405,103.569 273.972,106.938 278.244 C 107.797 279.334,108.500 280.296,108.500 280.382 C 108.500 280.469,109.175 281.365,110.000 282.375 C 110.825 283.385,111.500 284.285,111.500 284.375 C 111.500 284.465,112.175 285.365,113.000 286.375 C 113.825 287.385,114.500 288.285,114.500 288.375 C 114.500 288.465,115.175 289.365,116.000 290.375 C 116.825 291.385,117.500 292.285,117.500 292.375 C 117.500 292.465,118.175 293.365,119.000 294.375 C 119.825 295.385,120.500 296.285,120.500 296.375 C 120.500 296.465,121.175 297.365,122.000 298.375 C 122.825 299.385,123.500 300.283,123.500 300.372 C 123.500 300.537,125.441 303.050,126.124 303.771 C 126.331 303.989,126.500 304.249,126.500 304.350 C 126.500 304.531,128.397 307.004,129.124 307.771 C 129.331 307.989,129.500 308.249,129.500 308.350 C 129.500 308.531,131.397 311.004,132.124 311.771 C 132.331 311.989,132.500 312.254,132.500 312.361 C 132.500 312.468,132.950 313.093,133.500 313.750 C 134.050 314.407,134.500 315.065,134.500 315.213 C 134.500 315.361,134.725 315.603,135.000 315.750 C 135.275 315.897,135.500 316.139,135.500 316.287 C 135.500 316.435,135.950 317.093,136.500 317.750 C 137.050 318.407,137.500 319.065,137.500 319.213 C 137.500 319.361,137.725 319.603,138.000 319.750 C 138.275 319.897,138.500 320.139,138.500 320.287 C 138.500 320.435,138.950 321.093,139.500 321.750 C 140.050 322.407,140.500 323.065,140.500 323.213 C 140.500 323.361,140.725 323.603,141.000 323.750 C 141.275 323.897,141.500 324.139,141.500 324.287 C 141.500 324.435,141.950 325.093,142.500 325.750 C 143.050 326.407,143.500 327.065,143.500 327.213 C 143.500 327.361,143.725 327.603,144.000 327.750 C 144.275 327.897,144.500 328.139,144.500 328.287 C 144.500 328.435,144.950 329.093,145.500 329.750 C 146.050 330.407,146.500 331.042,146.500 331.161 C 146.500 331.281,146.894 331.740,147.375 332.182 C 147.856 332.623,148.250 333.066,148.250 333.166 C 148.250 333.488,149.583 334.750,149.922 334.750 C 150.102 334.750,150.250 334.856,150.250 334.987 C 150.250 335.551,155.304 338.561,156.784 338.878 C 157.246 338.977,157.738 339.143,157.875 339.246 C 158.205 339.495,159.626 339.754,162.375 340.065 C 165.478 340.416,296.003 340.597,296.349 340.251 C 296.487 340.113,297.034 340.000,297.564 340.000 C 299.146 340.000,300.801 339.481,302.063 338.589 C 302.717 338.128,303.341 337.750,303.452 337.750 C 303.710 337.750,305.250 336.165,305.250 335.899 C 305.250 335.788,305.569 335.287,305.959 334.786 C 306.348 334.285,306.816 333.313,306.997 332.625 C 307.179 331.938,307.408 331.262,307.506 331.125 C 307.604 330.988,307.826 330.087,308.000 329.125 C 308.174 328.163,308.399 327.262,308.500 327.125 C 308.601 326.988,308.826 326.087,309.000 325.125 C 309.174 324.163,309.399 323.262,309.500 323.125 C 309.601 322.988,309.826 322.087,310.000 321.125 C 310.174 320.163,310.399 319.262,310.500 319.125 C 310.601 318.988,310.826 318.087,311.000 317.125 C 311.174 316.163,311.399 315.262,311.500 315.125 C 311.601 314.988,311.826 314.087,312.000 313.125 C 312.174 312.163,312.399 311.262,312.500 311.125 C 312.601 310.988,312.826 310.087,313.000 309.125 C 313.174 308.163,313.399 307.262,313.500 307.125 C 313.601 306.988,313.826 306.087,314.000 305.125 C 314.174 304.163,314.399 303.262,314.500 303.125 C 314.601 302.988,314.826 302.087,315.000 301.125 C 315.174 300.163,315.401 299.262,315.504 299.125 C 315.608 298.988,315.828 298.060,315.994 297.063 C 316.159 296.067,316.389 295.193,316.505 295.122 C 316.620 295.051,316.792 294.375,316.886 293.621 C 316.981 292.867,317.165 292.250,317.296 292.250 C 317.427 292.250,317.465 292.034,317.382 291.771 C 317.298 291.508,317.339 291.225,317.472 291.142 C 317.606 291.060,317.792 290.374,317.887 289.618 C 317.981 288.862,318.160 288.181,318.283 288.104 C 318.407 288.028,318.440 287.856,318.358 287.722 C 318.275 287.588,318.315 287.342,318.447 287.177 C 318.579 287.011,318.768 286.313,318.867 285.625 C 318.966 284.938,319.158 284.239,319.295 284.073 C 319.431 283.908,319.475 283.662,319.392 283.528 C 319.310 283.394,319.343 283.222,319.467 283.146 C 319.590 283.069,319.769 282.388,319.863 281.632 C 319.958 280.876,320.147 280.188,320.285 280.104 C 320.422 280.019,320.475 279.796,320.403 279.608 C 320.331 279.420,320.365 279.209,320.478 279.139 C 320.591 279.069,320.762 278.421,320.858 277.699 C 320.954 276.978,321.123 276.272,321.233 276.131 C 321.344 275.990,321.576 275.087,321.750 274.125 C 321.924 273.163,322.149 272.262,322.250 272.125 C 322.351 271.988,322.576 271.087,322.750 270.125 C 322.924 269.163,323.149 268.262,323.250 268.125 C 323.351 267.988,323.576 267.087,323.750 266.125 C 323.924 265.163,324.146 264.262,324.243 264.125 C 324.341 263.988,324.564 263.031,324.739 262.000 C 324.915 260.969,325.144 260.012,325.249 259.875 C 325.355 259.738,325.580 258.613,325.750 257.375 C 325.920 256.137,326.143 255.012,326.246 254.875 C 326.349 254.738,326.569 253.331,326.735 251.750 C 326.902 250.169,327.135 248.650,327.253 248.375 C 327.499 247.805,328.000 242.218,328.000 240.045 C 328.000 239.223,328.135 238.465,328.312 238.288 C 328.741 237.859,328.773 186.263,328.345 185.726 C 328.191 185.533,327.986 184.925,327.889 184.375 C 327.728 183.465,327.033 181.694,326.465 180.750 C 326.341 180.544,326.065 179.992,325.850 179.523 C 324.714 177.041,319.036 172.422,316.437 171.866 C 315.990 171.770,315.467 171.565,315.274 171.409 C 314.801 171.026,307.709 171.021,307.226 171.402 C 307.033 171.555,306.492 171.752,306.025 171.841 C 305.011 172.034,303.175 172.896,302.101 173.683 C 301.676 173.995,301.238 174.250,301.128 174.250 C 300.841 174.250,297.193 178.018,296.766 178.755 C 295.451 181.027,294.695 182.767,294.572 183.803 C 294.494 184.461,294.334 185.000,294.215 185.000 C 294.097 185.000,294.000 185.731,294.000 186.625 L 294.000 188.250 290.750 188.250 L 287.500 188.250 287.500 181.760 C 287.500 175.284,287.247 172.043,286.629 170.625 C 286.450 170.213,286.226 169.509,286.132 169.063 C 286.037 168.616,285.875 168.250,285.770 168.250 C 285.666 168.250,285.428 167.788,285.241 167.223 C 285.055 166.659,284.756 166.141,284.576 166.072 C 284.397 166.003,284.250 165.816,284.250 165.656 C 284.250 165.497,283.744 164.788,283.125 164.080 C 282.506 163.373,282.000 162.728,282.000 162.647 C 282.000 162.455,281.044 161.500,280.851 161.500 C 280.769 161.500,280.179 161.040,279.541 160.478 C 278.903 159.917,278.042 159.300,277.628 159.108 C 277.214 158.917,276.706 158.664,276.500 158.548 C 275.033 157.717,273.973 157.287,273.000 157.128 C 272.381 157.026,271.717 156.816,271.524 156.659 C 271.050 156.275,263.959 156.270,263.476 156.654 C 263.283 156.807,262.663 156.991,262.098 157.063 C 261.533 157.134,260.689 157.367,260.223 157.581 C 259.757 157.794,258.981 158.149,258.500 158.368 C 256.998 159.054,256.250 159.518,256.250 159.764 C 256.250 159.894,256.073 160.000,255.858 160.000 C 254.324 160.000,248.726 167.482,248.095 170.375 C 248.005 170.787,247.834 171.249,247.716 171.400 C 247.348 171.870,247.008 177.384,247.004 182.938 L 247.000 188.250 243.896 188.250 L 240.792 188.250 240.709 177.688 C 240.647 169.964,240.543 166.991,240.321 166.625 C 240.154 166.350,239.893 165.478,239.741 164.688 C 239.589 163.897,239.360 163.250,239.232 163.250 C 239.105 163.250,239.000 163.062,239.000 162.832 C 239.000 162.228,237.537 159.279,236.709 158.214 C 236.319 157.713,236.000 157.180,236.000 157.029 C 236.000 156.878,235.775 156.614,235.500 156.442 C 235.225 156.270,235.000 155.998,235.000 155.837 C 235.000 155.491,230.790 151.500,230.424 151.500 C 230.286 151.500,229.824 151.247,229.399 150.938 C 228.691 150.423,227.981 150.055,225.500 148.916 C 225.019 148.695,223.838 148.381,222.875 148.217 C 221.912 148.053,221.018 147.825,220.888 147.710 C 220.575 147.434,214.568 147.437,214.398 147.714 C 214.325 147.831,213.571 148.000,212.721 148.089 C 211.872 148.177,210.838 148.419,210.425 148.625 C 210.011 148.831,209.577 149.000,209.459 149.000 C 208.848 149.000,205.394 150.916,204.044 152.004 C 203.193 152.689,202.408 153.250,202.298 153.250 C 202.042 153.250,200.500 154.834,200.500 155.097 C 200.500 155.206,199.936 155.927,199.247 156.700 C 197.933 158.175,195.873 162.008,195.594 163.500 C 195.503 163.981,195.343 164.488,195.237 164.625 C 194.723 165.290,194.500 169.499,194.500 178.518 L 194.500 188.250 191.375 188.250 L 188.250 188.250 188.250 136.140 C 188.250 98.989,188.172 83.981,187.979 83.862 C 187.814 83.760,187.737 83.001,187.783 81.910 C 187.824 80.928,187.791 80.013,187.710 79.875 C 187.630 79.737,187.483 79.063,187.383 78.375 C 187.284 77.688,187.097 76.996,186.968 76.839 C 186.838 76.681,186.755 76.456,186.782 76.339 C 186.809 76.221,186.700 75.808,186.540 75.421 C 186.381 75.034,186.244 74.584,186.236 74.421 C 186.228 74.258,185.895 73.563,185.496 72.875 C 185.097 72.188,184.630 71.344,184.458 71.000 C 184.286 70.656,183.719 69.853,183.198 69.215 C 182.677 68.577,182.250 67.996,182.250 67.923 C 182.250 67.452,177.323 63.250,176.771 63.250 C 176.622 63.250,176.500 63.149,176.500 63.026 C 176.500 62.774,173.461 61.251,172.953 61.248 C 172.773 61.248,172.313 61.084,171.931 60.885 C 171.026 60.413,168.756 60.000,167.063 60.000 C 166.323 60.000,165.522 59.895,165.283 59.767 C 165.019 59.626,164.706 59.625,164.487 59.764 " stroke="none" fill="#14141c" fill-rule="evenodd"></path><path id="path2" d="M160.125 59.932 C 159.713 59.990,159.262 60.149,159.125 60.284 C 158.960 60.446,159.022 60.474,159.306 60.365 C 159.544 60.275,160.781 60.116,162.056 60.011 C 164.257 59.831,164.286 59.821,162.625 59.823 C 161.662 59.824,160.537 59.873,160.125 59.932 M167.694 59.991 C 168.969 60.107,170.206 60.275,170.444 60.365 C 170.764 60.487,170.803 60.457,170.594 60.247 C 170.437 60.088,169.226 59.923,167.844 59.872 L 165.375 59.781 167.694 59.991 M157.075 60.777 C 156.635 60.904,156.215 61.105,156.142 61.223 C 155.996 61.459,157.635 60.948,157.912 60.671 C 158.109 60.474,158.129 60.472,157.075 60.777 M171.654 60.743 C 171.919 60.995,173.885 61.551,173.638 61.305 C 173.544 61.211,173.009 60.998,172.450 60.833 C 171.891 60.668,171.532 60.628,171.654 60.743 M154.125 62.000 C 153.810 62.135,153.764 62.215,154.000 62.215 C 154.206 62.215,154.600 62.118,154.875 62.000 C 155.190 61.865,155.236 61.785,155.000 61.785 C 154.794 61.785,154.400 61.882,154.125 62.000 M176.750 63.178 C 176.956 63.254,177.631 63.716,178.250 64.203 C 179.890 65.495,180.000 65.573,180.000 65.442 C 180.000 65.191,177.025 63.001,176.709 63.020 C 176.471 63.034,176.483 63.079,176.750 63.178 M148.231 66.438 L 147.625 67.125 148.375 66.500 C 148.787 66.156,149.172 65.847,149.229 65.813 C 149.286 65.778,149.222 65.750,149.085 65.750 C 148.949 65.750,148.564 66.059,148.231 66.438 M184.493 71.236 C 184.886 71.971,185.245 72.091,184.914 71.377 C 184.755 71.034,184.537 70.753,184.429 70.752 C 184.321 70.751,184.349 70.969,184.493 71.236 M186.429 75.254 C 186.622 75.993,186.948 76.091,186.810 75.367 C 186.745 75.028,186.603 74.750,186.494 74.750 C 186.386 74.750,186.356 74.977,186.429 75.254 M142.137 77.313 C 141.914 78.033,141.836 78.976,142.008 78.870 C 142.111 78.806,142.241 78.360,142.297 77.877 C 142.399 77.001,142.321 76.722,142.137 77.313 M187.455 78.895 C 187.510 79.368,187.632 79.802,187.725 79.860 C 187.819 79.918,187.850 79.578,187.795 79.105 C 187.740 78.632,187.618 78.198,187.525 78.140 C 187.431 78.082,187.400 78.422,187.455 78.895 M187.797 82.048 C 187.771 82.968,187.863 83.790,188.000 83.875 C 188.165 83.977,188.271 101.674,188.312 135.952 L 188.374 187.875 188.441 136.125 C 188.485 101.994,188.423 84.205,188.258 83.875 C 188.121 83.600,187.972 82.700,187.926 81.875 L 187.845 80.375 187.797 82.048 M141.417 82.917 C 141.325 83.008,141.248 119.880,141.246 164.854 L 141.243 246.625 140.381 245.625 C 139.907 245.075,139.515 244.496,139.509 244.339 C 139.504 244.182,139.324 243.986,139.109 243.904 C 138.642 243.724,139.191 244.547,140.591 246.125 L 141.478 247.125 141.552 164.937 C 141.592 119.734,141.616 82.750,141.604 82.750 C 141.593 82.750,141.508 82.825,141.417 82.917 M212.750 147.793 C 211.856 147.921,211.027 148.123,210.907 148.243 C 210.786 148.364,211.120 148.361,211.657 148.237 C 212.189 148.113,212.984 148.009,213.423 148.006 C 213.862 148.003,214.290 147.887,214.375 147.750 C 214.460 147.613,214.495 147.514,214.452 147.531 C 214.410 147.548,213.644 147.666,212.750 147.793 M221.625 147.925 C 223.580 148.369,224.035 148.435,223.843 148.246 C 223.723 148.127,223.063 147.981,222.375 147.921 C 221.688 147.861,221.350 147.862,221.625 147.925 M209.325 148.777 C 208.885 148.904,208.465 149.105,208.392 149.223 C 208.246 149.459,209.885 148.948,210.162 148.671 C 210.359 148.474,210.379 148.472,209.325 148.777 M225.173 148.773 C 225.303 148.903,225.782 149.116,226.238 149.247 C 227.315 149.556,227.009 149.250,225.839 148.847 C 225.343 148.677,225.043 148.643,225.173 148.773 M206.938 149.893 C 206.003 150.400,206.060 150.611,207.000 150.125 C 207.412 149.912,207.750 149.684,207.750 149.619 C 207.750 149.458,207.723 149.467,206.938 149.893 M227.610 149.878 C 227.877 150.083,228.194 150.250,228.314 150.250 C 228.435 150.250,228.948 150.545,229.454 150.906 L 230.375 151.562 229.500 150.790 C 229.019 150.365,228.287 149.903,227.875 149.762 C 227.183 149.527,227.162 149.535,227.610 149.878 M204.049 151.750 C 203.196 152.438,202.408 153.000,202.299 153.000 C 202.001 153.000,200.250 154.856,200.250 155.172 C 200.250 155.324,199.884 155.778,199.438 156.181 C 198.991 156.584,198.471 157.186,198.283 157.519 C 198.096 157.853,198.512 157.506,199.210 156.750 C 199.907 155.994,200.482 155.256,200.489 155.112 C 200.501 154.816,202.049 153.250,202.328 153.250 C 202.426 153.250,203.152 152.731,203.941 152.096 C 205.623 150.742,205.894 150.500,205.725 150.500 C 205.656 150.500,204.902 151.063,204.049 151.750 M233.438 154.007 C 234.297 154.904,235.000 155.776,235.000 155.944 C 235.000 156.112,235.116 156.250,235.259 156.250 C 235.719 156.250,235.101 155.436,233.456 153.875 L 231.875 152.375 233.438 154.007 M265.164 156.188 C 265.100 156.291,266.095 156.375,267.375 156.375 C 268.655 156.375,269.650 156.291,269.586 156.188 C 269.523 156.084,268.528 156.000,267.375 156.000 C 266.222 156.000,265.227 156.084,265.164 156.188 M235.913 156.937 C 235.977 157.178,236.374 157.769,236.796 158.250 L 237.562 159.125 236.906 158.204 C 236.545 157.698,236.250 157.170,236.250 157.031 C 236.250 156.893,236.148 156.716,236.023 156.639 C 235.899 156.562,235.849 156.696,235.913 156.937 M262.153 156.764 C 261.481 156.876,260.806 157.095,260.653 157.250 C 260.447 157.459,260.557 157.463,261.079 157.266 C 261.466 157.120,262.106 157.000,262.502 157.000 C 262.897 157.000,263.290 156.887,263.375 156.750 C 263.460 156.613,263.495 156.513,263.452 156.529 C 263.410 156.546,262.825 156.651,262.153 156.764 M271.670 156.748 C 271.783 156.849,272.473 157.045,273.205 157.183 C 273.936 157.322,274.443 157.352,274.330 157.252 C 274.217 157.151,273.527 156.955,272.795 156.817 C 272.064 156.678,271.557 156.648,271.670 156.748 M259.080 157.832 C 258.643 157.993,258.202 158.210,258.099 158.315 C 257.846 158.572,259.562 157.989,259.863 157.716 C 260.154 157.451,260.082 157.462,259.080 157.832 M275.110 157.878 C 275.377 158.083,275.792 158.250,276.033 158.250 C 276.274 158.250,276.547 158.374,276.641 158.526 C 276.734 158.677,277.164 158.949,277.596 159.129 C 278.027 159.309,278.942 159.927,279.628 160.501 C 280.873 161.543,280.872 161.543,279.518 160.275 C 278.771 159.577,277.928 158.935,277.643 158.848 C 277.358 158.762,276.956 158.551,276.750 158.381 C 276.544 158.210,275.981 157.944,275.500 157.789 C 274.705 157.533,274.669 157.541,275.110 157.878 M197.569 158.563 C 197.286 158.929,196.971 159.750,197.115 159.750 C 197.169 159.750,197.382 159.412,197.588 159.000 C 197.981 158.211,197.974 158.039,197.569 158.563 M237.770 159.765 C 237.759 159.979,237.925 160.373,238.139 160.640 C 238.521 161.117,238.524 161.117,238.298 160.625 C 238.171 160.350,238.005 159.956,237.929 159.750 C 237.808 159.426,237.787 159.428,237.770 159.765 M254.238 160.980 C 253.475 161.652,252.297 162.860,251.620 163.664 C 250.848 164.580,251.282 164.218,252.782 162.693 C 254.098 161.356,255.445 160.154,255.775 160.022 C 256.105 159.890,256.206 159.776,256.000 159.769 C 255.794 159.763,255.001 160.307,254.238 160.980 M196.647 160.214 C 196.371 160.661,195.979 161.864,196.187 161.625 C 196.463 161.309,197.025 160.000,196.884 160.000 C 196.827 160.000,196.720 160.096,196.647 160.214 M238.906 162.250 C 239.062 163.147,239.180 163.412,239.342 163.229 C 239.392 163.172,239.281 162.731,239.094 162.250 L 238.754 161.375 238.906 162.250 M195.650 162.459 C 195.444 162.793,195.028 164.805,195.201 164.632 C 195.368 164.466,195.972 162.250,195.851 162.250 C 195.812 162.250,195.721 162.344,195.650 162.459 M283.101 163.996 C 283.733 164.750,284.250 165.509,284.250 165.683 C 284.250 165.857,284.366 166.000,284.509 166.000 C 284.916 166.000,284.406 165.214,283.111 163.848 L 281.952 162.625 283.101 163.996 M239.817 165.045 C 239.955 165.777,240.151 166.467,240.252 166.580 C 240.352 166.693,240.322 166.186,240.183 165.455 C 240.045 164.723,239.849 164.033,239.748 163.920 C 239.648 163.807,239.678 164.314,239.817 165.045 M194.577 166.063 C 194.466 166.234,194.366 171.325,194.355 177.375 L 194.335 188.375 194.480 177.375 C 194.560 171.325,194.716 166.234,194.827 166.063 C 194.938 165.891,194.973 165.750,194.905 165.750 C 194.836 165.750,194.688 165.891,194.577 166.063 M285.202 167.125 C 285.329 167.400,285.495 167.794,285.571 168.000 C 285.692 168.324,285.713 168.322,285.730 167.985 C 285.741 167.771,285.575 167.377,285.361 167.110 C 284.979 166.633,284.976 166.633,285.202 167.125 M249.147 167.214 C 248.828 167.731,248.522 168.766,248.726 168.640 C 248.850 168.563,249.068 168.163,249.212 167.750 C 249.462 167.034,249.429 166.758,249.147 167.214 M240.750 178.575 L 240.875 188.375 240.940 178.766 C 240.976 173.480,240.920 169.070,240.816 168.965 C 240.711 168.860,240.681 173.185,240.750 178.575 M286.282 169.646 C 286.427 170.185,286.645 170.728,286.764 170.854 C 286.884 170.980,286.863 170.642,286.718 170.104 C 286.573 169.565,286.355 169.022,286.236 168.896 C 286.116 168.770,286.137 169.108,286.282 169.646 M248.131 169.313 C 247.787 170.349,247.549 171.548,247.724 171.354 C 247.957 171.097,248.506 169.000,248.341 169.000 C 248.282 169.000,248.188 169.141,248.131 169.313 M308.663 170.938 C 308.599 171.041,309.351 171.094,310.336 171.057 C 313.382 170.940,313.734 170.832,311.202 170.790 C 309.870 170.768,308.727 170.834,308.663 170.938 M306.140 171.531 C 305.598 171.658,305.092 171.826,305.015 171.903 C 304.785 172.136,306.855 171.708,307.113 171.470 C 307.243 171.349,307.299 171.261,307.238 171.275 C 307.176 171.289,306.682 171.404,306.140 171.531 M315.406 171.484 C 315.527 171.592,316.117 171.801,316.719 171.947 C 317.321 172.093,317.714 172.124,317.594 172.016 C 317.473 171.908,316.883 171.699,316.281 171.553 C 315.679 171.407,315.286 171.376,315.406 171.484 M303.375 172.614 C 302.962 172.803,302.288 173.261,301.875 173.632 L 301.125 174.305 302.046 173.653 C 302.552 173.294,303.065 173.000,303.186 173.000 C 303.306 173.000,303.623 172.835,303.890 172.633 C 304.494 172.176,304.342 172.170,303.375 172.614 M318.109 172.473 C 318.186 172.598,318.612 172.827,319.056 172.982 C 319.992 173.308,319.709 172.987,318.672 172.546 C 318.285 172.381,318.031 172.348,318.109 172.473 M287.275 173.688 C 287.382 174.341,287.503 177.912,287.543 181.625 L 287.615 188.375 287.697 182.500 C 287.780 176.529,287.607 172.500,287.267 172.500 C 287.164 172.500,287.167 173.034,287.275 173.688 M247.105 173.032 C 247.010 173.187,246.901 176.702,246.863 180.844 L 246.796 188.375 246.991 180.840 C 247.099 176.696,247.264 173.180,247.358 173.027 C 247.452 172.875,247.473 172.750,247.405 172.750 C 247.336 172.750,247.201 172.877,247.105 173.032 M322.935 176.137 C 324.483 177.697,325.750 179.133,325.750 179.328 C 325.750 179.523,325.975 179.969,326.250 180.318 C 326.525 180.668,326.750 181.111,326.750 181.304 C 326.750 181.497,326.917 181.873,327.122 182.140 C 327.459 182.581,327.467 182.545,327.211 181.750 C 327.056 181.269,326.798 180.706,326.638 180.500 C 326.478 180.294,326.222 179.832,326.070 179.473 C 325.769 178.763,321.827 174.517,320.772 173.766 C 320.413 173.510,321.387 174.578,322.935 176.137 M294.410 183.053 C 294.326 183.367,294.269 183.963,294.283 184.375 C 294.301 184.893,294.373 184.740,294.516 183.883 C 294.735 182.577,294.671 182.079,294.410 183.053 M327.904 184.250 C 327.985 184.869,328.143 185.473,328.256 185.593 C 328.368 185.712,328.353 185.319,328.222 184.718 C 327.883 183.158,327.732 182.937,327.904 184.250 M328.750 209.050 C 328.681 220.009,328.710 228.890,328.814 228.786 C 328.918 228.682,328.974 219.716,328.939 208.861 L 328.875 189.125 328.750 209.050 M91.399 200.274 C 90.036 200.386,88.818 200.582,88.691 200.709 C 88.549 200.851,88.880 200.859,89.542 200.731 C 90.138 200.616,91.321 200.517,92.173 200.511 C 93.024 200.505,93.790 200.387,93.875 200.250 C 93.960 200.113,93.995 200.016,93.952 200.035 C 93.910 200.054,92.761 200.162,91.399 200.274 M94.698 200.279 C 94.919 200.476,100.119 200.786,99.924 200.590 C 99.845 200.512,98.598 200.374,97.151 200.285 C 95.705 200.195,94.601 200.193,94.698 200.279 M86.750 201.292 C 86.269 201.428,85.776 201.635,85.654 201.753 C 85.532 201.871,85.891 201.832,86.450 201.667 C 87.009 201.502,87.549 201.284,87.650 201.183 C 87.861 200.973,87.898 200.968,86.750 201.292 M101.375 201.360 C 102.023 201.647,103.556 201.957,103.354 201.761 C 103.228 201.639,102.675 201.474,102.125 201.394 C 101.575 201.314,101.237 201.299,101.375 201.360 M84.188 202.393 C 83.253 202.900,83.310 203.111,84.250 202.625 C 84.662 202.412,85.000 202.184,85.000 202.119 C 85.000 201.958,84.973 201.967,84.188 202.393 M103.866 202.235 C 103.939 202.354,104.341 202.570,104.758 202.715 C 105.176 202.861,105.457 202.883,105.384 202.765 C 105.311 202.646,104.909 202.430,104.492 202.285 C 104.074 202.139,103.793 202.117,103.866 202.235 M82.125 203.617 C 81.713 203.955,81.234 204.236,81.063 204.241 C 80.891 204.246,80.750 204.366,80.750 204.509 C 80.750 204.682,80.894 204.687,81.188 204.521 C 81.741 204.210,83.167 203.021,83.000 203.010 C 82.931 203.006,82.537 203.279,82.125 203.617 M108.750 205.199 C 109.506 205.902,110.294 206.475,110.500 206.473 C 110.736 206.470,110.689 206.392,110.375 206.264 C 110.100 206.151,109.650 205.809,109.375 205.503 C 109.100 205.196,108.537 204.715,108.125 204.433 C 107.713 204.152,107.994 204.496,108.750 205.199 M78.267 206.607 C 77.953 206.941,77.756 207.363,77.828 207.545 C 77.931 207.801,77.965 207.795,77.980 207.516 C 77.991 207.319,78.245 206.897,78.544 206.579 C 78.843 206.260,79.031 206.000,78.962 206.000 C 78.893 206.000,78.580 206.273,78.267 206.607 M113.198 209.625 C 113.879 210.450,114.498 211.294,114.573 211.500 C 114.695 211.833,114.713 211.833,114.730 211.500 C 114.740 211.294,114.121 210.450,113.354 209.625 L 111.959 208.125 113.198 209.625 M75.750 209.517 C 75.750 209.663,75.456 210.198,75.097 210.704 L 74.445 211.625 75.110 210.875 C 75.996 209.876,76.342 209.250,76.009 209.250 C 75.866 209.250,75.750 209.370,75.750 209.517 M115.250 212.203 C 115.250 212.331,115.813 213.140,116.500 214.000 C 117.188 214.860,117.750 215.481,117.750 215.379 C 117.750 215.277,117.300 214.657,116.750 214.000 C 116.200 213.343,115.750 212.687,115.750 212.543 C 115.750 212.398,115.638 212.210,115.500 212.125 C 115.362 212.040,115.250 212.075,115.250 212.203 M73.120 214.258 C 72.878 214.649,72.492 216.091,72.679 215.904 C 72.868 215.716,73.482 214.000,73.360 214.000 C 73.316 214.000,73.208 214.116,73.120 214.258 M118.250 216.203 C 118.250 216.331,118.813 217.140,119.500 218.000 C 120.188 218.860,120.750 219.481,120.750 219.379 C 120.750 219.277,120.300 218.657,119.750 218.000 C 119.200 217.343,118.750 216.687,118.750 216.543 C 118.750 216.398,118.638 216.210,118.500 216.125 C 118.362 216.040,118.250 216.075,118.250 216.203 M72.118 216.813 C 71.895 217.412,71.561 219.522,71.714 219.370 C 71.887 219.197,72.458 216.500,72.322 216.500 C 72.274 216.500,72.182 216.641,72.118 216.813 M122.354 221.750 C 122.722 222.231,123.087 222.822,123.166 223.063 C 123.244 223.303,123.412 223.500,123.538 223.500 C 123.849 223.500,123.432 222.813,122.474 221.750 L 121.686 220.875 122.354 221.750 M124.153 224.313 C 124.253 224.484,124.749 225.131,125.256 225.750 C 125.762 226.369,126.241 227.044,126.319 227.250 C 126.424 227.530,126.466 227.538,126.480 227.285 C 126.491 227.098,126.050 226.407,125.500 225.750 C 124.950 225.093,124.500 224.431,124.500 224.278 C 124.500 224.125,124.381 224.000,124.235 224.000 C 124.090 224.000,124.052 224.141,124.153 224.313 M71.778 228.536 C 71.891 229.250,72.080 229.930,72.197 230.047 C 72.315 230.165,72.289 229.648,72.140 228.898 C 71.786 227.128,71.512 226.854,71.778 228.536 M127.153 228.313 C 127.253 228.484,127.749 229.131,128.256 229.750 C 128.762 230.369,129.241 231.044,129.319 231.250 C 129.424 231.530,129.466 231.538,129.480 231.285 C 129.491 231.098,129.050 230.407,128.500 229.750 C 127.950 229.093,127.500 228.431,127.500 228.278 C 127.500 228.125,127.381 228.000,127.235 228.000 C 127.090 228.000,127.052 228.141,127.153 228.313 M72.750 231.750 C 72.883 232.213,73.109 232.709,73.252 232.852 C 73.417 233.017,73.406 232.791,73.223 232.244 C 72.836 231.089,72.442 230.678,72.750 231.750 M130.153 232.313 C 130.253 232.484,130.749 233.131,131.256 233.750 C 131.762 234.369,132.241 235.044,132.319 235.250 C 132.424 235.530,132.466 235.538,132.480 235.285 C 132.491 235.098,132.050 234.407,131.500 233.750 C 130.950 233.093,130.500 232.431,130.500 232.278 C 130.500 232.125,130.381 232.000,130.235 232.000 C 130.090 232.000,130.052 232.141,130.153 232.313 M73.766 233.875 C 73.914 234.287,74.190 234.795,74.379 235.005 C 74.569 235.214,74.835 235.664,74.971 236.005 C 75.121 236.380,75.225 236.466,75.234 236.221 C 75.243 235.999,75.025 235.531,74.750 235.182 C 74.475 234.832,74.250 234.445,74.250 234.321 C 74.250 234.197,74.081 233.877,73.874 233.610 C 73.525 233.162,73.517 233.181,73.766 233.875 M133.153 236.313 C 133.253 236.484,133.749 237.131,134.256 237.750 C 134.762 238.369,135.241 239.044,135.319 239.250 C 135.424 239.530,135.466 239.538,135.480 239.285 C 135.491 239.098,135.050 238.407,134.500 237.750 C 133.950 237.093,133.500 236.431,133.500 236.278 C 133.500 236.125,133.381 236.000,133.235 236.000 C 133.090 236.000,133.052 236.141,133.153 236.313 M75.750 236.953 C 75.750 237.081,76.313 237.890,77.000 238.750 C 77.688 239.610,78.250 240.231,78.250 240.129 C 78.250 240.027,77.800 239.407,77.250 238.750 C 76.700 238.093,76.250 237.437,76.250 237.293 C 76.250 237.148,76.138 236.960,76.000 236.875 C 75.862 236.790,75.750 236.825,75.750 236.953 M328.167 238.417 C 328.075 238.508,327.992 239.380,327.982 240.354 C 327.972 241.328,327.885 242.994,327.789 244.056 C 327.692 245.118,327.691 245.906,327.787 245.806 C 327.915 245.672,328.473 238.250,328.354 238.250 C 328.343 238.250,328.258 238.325,328.167 238.417 M136.021 240.182 C 136.208 240.426,136.770 241.131,137.269 241.750 C 137.768 242.369,138.241 243.044,138.319 243.250 C 138.424 243.530,138.466 243.538,138.480 243.285 C 138.491 243.098,138.050 242.407,137.500 241.750 C 136.950 241.093,136.500 240.443,136.500 240.305 C 136.500 240.166,136.315 239.983,136.090 239.896 C 135.732 239.759,135.723 239.795,136.021 240.182 M327.220 248.313 C 327.072 248.615,326.654 252.944,326.786 252.806 C 326.954 252.629,327.472 248.250,327.324 248.250 C 327.284 248.250,327.236 248.278,327.220 248.313 M326.158 254.946 C 326.092 255.054,325.979 255.870,325.908 256.759 C 325.780 258.365,325.840 258.210,326.229 255.938 C 326.426 254.784,326.409 254.541,326.158 254.946 M325.133 260.063 C 324.865 260.893,324.573 262.775,324.741 262.588 C 324.948 262.357,325.490 259.750,325.331 259.750 C 325.278 259.750,325.189 259.891,325.133 260.063 M324.133 264.313 C 323.865 265.143,323.573 267.025,323.741 266.838 C 323.948 266.607,324.490 264.000,324.331 264.000 C 324.278 264.000,324.189 264.141,324.133 264.313 M323.133 268.313 C 322.865 269.143,322.573 271.025,322.741 270.838 C 322.948 270.607,323.490 268.000,323.331 268.000 C 323.278 268.000,323.189 268.141,323.133 268.313 M322.133 272.313 C 321.851 273.186,321.577 275.023,321.756 274.838 C 321.972 274.614,322.504 272.000,322.333 272.000 C 322.279 272.000,322.189 272.141,322.133 272.313 M321.164 276.188 C 320.990 276.470,320.665 278.894,320.821 278.750 C 320.970 278.612,321.478 276.000,321.356 276.000 C 321.314 276.000,321.228 276.084,321.164 276.188 M105.250 276.370 C 105.250 276.463,105.925 277.365,106.750 278.375 C 107.575 279.385,108.250 280.285,108.250 280.375 C 108.250 280.465,108.925 281.365,109.750 282.375 C 110.575 283.385,111.250 284.285,111.250 284.375 C 111.250 284.465,111.925 285.365,112.750 286.375 C 113.575 287.385,114.250 288.288,114.250 288.383 C 114.250 288.478,114.700 289.093,115.250 289.750 C 115.800 290.407,116.250 291.042,116.250 291.162 C 116.250 291.282,116.475 291.520,116.750 291.692 C 117.025 291.864,117.250 292.128,117.250 292.280 C 117.250 292.432,117.700 293.093,118.250 293.750 C 118.800 294.407,119.250 295.042,119.250 295.162 C 119.250 295.282,119.475 295.520,119.750 295.692 C 120.025 295.864,120.250 296.128,120.250 296.280 C 120.250 296.432,120.700 297.093,121.250 297.750 C 121.800 298.407,122.250 299.042,122.250 299.162 C 122.250 299.282,122.475 299.520,122.750 299.692 C 123.025 299.864,123.250 300.128,123.250 300.280 C 123.250 300.432,123.700 301.093,124.250 301.750 C 124.800 302.407,125.250 303.069,125.250 303.222 C 125.250 303.375,125.369 303.500,125.515 303.500 C 125.851 303.500,125.648 303.157,124.458 301.715 C 123.931 301.077,123.500 300.478,123.500 300.383 C 123.500 300.288,122.825 299.385,122.000 298.375 C 121.175 297.365,120.500 296.465,120.500 296.375 C 120.500 296.285,119.825 295.385,119.000 294.375 C 118.175 293.365,117.500 292.465,117.500 292.375 C 117.500 292.285,116.825 291.385,116.000 290.375 C 115.175 289.365,114.500 288.465,114.500 288.375 C 114.500 288.285,113.825 287.385,113.000 286.375 C 112.175 285.365,111.500 284.465,111.500 284.375 C 111.500 284.285,110.825 283.385,110.000 282.375 C 109.175 281.365,108.500 280.469,108.500 280.382 C 108.500 280.296,107.769 279.320,106.875 278.213 C 105.981 277.106,105.250 276.276,105.250 276.370 M320.138 280.313 C 319.838 281.285,319.756 282.026,319.962 281.898 C 320.090 281.819,320.241 281.360,320.297 280.877 C 320.399 280.002,320.320 279.721,320.138 280.313 M319.138 284.313 C 318.835 285.296,318.738 286.100,318.949 285.875 C 319.210 285.597,319.561 284.000,319.361 284.000 C 319.291 284.000,319.191 284.141,319.138 284.313 M318.137 288.313 C 317.917 289.023,317.825 290.023,317.998 289.831 C 318.225 289.580,318.538 288.000,318.361 288.000 C 318.291 288.000,318.191 288.141,318.137 288.313 M316.955 293.107 C 316.900 293.579,316.931 293.918,317.023 293.861 C 317.261 293.714,317.452 292.250,317.234 292.250 C 317.135 292.250,317.010 292.636,316.955 293.107 M316.368 295.313 C 316.121 295.976,315.816 298.033,315.994 297.834 C 316.199 297.606,316.739 295.000,316.581 295.000 C 316.528 295.000,316.432 295.141,316.368 295.313 M315.383 299.313 C 315.115 300.143,314.823 302.025,314.991 301.838 C 315.198 301.607,315.740 299.000,315.581 299.000 C 315.528 299.000,315.439 299.141,315.383 299.313 M314.383 303.313 C 314.115 304.143,313.823 306.025,313.991 305.838 C 314.198 305.607,314.740 303.000,314.581 303.000 C 314.528 303.000,314.439 303.141,314.383 303.313 M126.170 304.175 C 126.260 304.422,126.765 305.147,127.292 305.785 C 127.819 306.423,128.250 307.069,128.250 307.222 C 128.250 307.375,128.369 307.500,128.515 307.500 C 128.851 307.500,128.648 307.157,127.458 305.715 C 126.931 305.077,126.500 304.437,126.500 304.293 C 126.500 304.148,126.389 303.961,126.253 303.877 C 126.105 303.785,126.072 303.905,126.170 304.175 M313.383 307.313 C 313.115 308.143,312.823 310.025,312.991 309.838 C 313.198 309.607,313.740 307.000,313.581 307.000 C 313.528 307.000,313.439 307.141,313.383 307.313 M129.170 308.175 C 129.260 308.422,129.765 309.147,130.292 309.785 C 130.819 310.423,131.250 311.069,131.250 311.222 C 131.250 311.375,131.369 311.500,131.515 311.500 C 131.851 311.500,131.648 311.157,130.458 309.715 C 129.931 309.077,129.500 308.437,129.500 308.293 C 129.500 308.148,129.389 307.961,129.253 307.877 C 129.105 307.785,129.072 307.905,129.170 308.175 M312.383 311.313 C 312.115 312.143,311.823 314.025,311.991 313.838 C 312.198 313.607,312.740 311.000,312.581 311.000 C 312.528 311.000,312.439 311.141,312.383 311.313 M132.000 311.962 C 132.000 312.095,132.488 312.805,133.085 313.540 C 133.682 314.274,134.236 315.044,134.315 315.250 C 134.424 315.530,134.466 315.539,134.480 315.285 C 134.491 315.098,134.050 314.407,133.500 313.750 C 132.950 313.093,132.500 312.437,132.500 312.293 C 132.500 312.148,132.387 311.960,132.250 311.875 C 132.113 311.790,132.000 311.829,132.000 311.962 M311.383 315.313 C 311.115 316.143,310.823 318.025,310.991 317.838 C 311.198 317.607,311.740 315.000,311.581 315.000 C 311.528 315.000,311.439 315.141,311.383 315.313 M135.000 315.962 C 135.000 316.095,135.488 316.805,136.085 317.540 C 136.682 318.274,137.236 319.044,137.315 319.250 C 137.424 319.530,137.466 319.539,137.480 319.285 C 137.491 319.098,137.050 318.407,136.500 317.750 C 135.950 317.093,135.500 316.437,135.500 316.293 C 135.500 316.148,135.387 315.960,135.250 315.875 C 135.113 315.790,135.000 315.829,135.000 315.962 M310.383 319.313 C 310.115 320.143,309.823 322.025,309.991 321.838 C 310.198 321.607,310.740 319.000,310.581 319.000 C 310.528 319.000,310.439 319.141,310.383 319.313 M138.000 319.962 C 138.000 320.095,138.488 320.805,139.085 321.540 C 139.682 322.274,140.236 323.044,140.315 323.250 C 140.424 323.530,140.466 323.539,140.480 323.285 C 140.491 323.098,140.050 322.407,139.500 321.750 C 138.950 321.093,138.500 320.437,138.500 320.293 C 138.500 320.148,138.387 319.960,138.250 319.875 C 138.113 319.790,138.000 319.829,138.000 319.962 M309.383 323.313 C 309.115 324.143,308.823 326.025,308.991 325.838 C 309.198 325.607,309.740 323.000,309.581 323.000 C 309.528 323.000,309.439 323.141,309.383 323.313 M141.000 323.953 C 141.000 324.081,141.563 324.890,142.250 325.750 C 142.938 326.610,143.500 327.231,143.500 327.129 C 143.500 327.027,143.050 326.407,142.500 325.750 C 141.950 325.093,141.500 324.437,141.500 324.293 C 141.500 324.148,141.387 323.960,141.250 323.875 C 141.113 323.790,141.000 323.825,141.000 323.953 M308.383 327.313 C 308.115 328.143,307.823 330.025,307.991 329.838 C 308.198 329.607,308.740 327.000,308.581 327.000 C 308.528 327.000,308.439 327.141,308.383 327.313 M307.389 331.313 C 307.337 331.484,307.169 332.016,307.015 332.494 C 306.862 332.972,306.842 333.254,306.970 333.119 C 307.229 332.849,307.776 331.000,307.597 331.000 C 307.535 331.000,307.441 331.141,307.389 331.313 M147.750 332.866 C 147.750 332.930,148.103 333.385,148.534 333.876 C 149.407 334.870,150.250 335.427,150.250 335.009 C 150.250 334.866,150.102 334.750,149.922 334.750 C 149.518 334.750,148.250 333.460,148.250 333.049 C 148.250 332.884,148.137 332.750,148.000 332.750 C 147.863 332.750,147.750 332.802,147.750 332.866 M305.905 334.858 C 305.545 335.330,305.250 335.815,305.250 335.934 C 305.250 336.242,303.657 337.750,303.331 337.750 C 303.183 337.750,302.907 337.937,302.718 338.165 C 302.403 338.547,302.426 338.552,303.000 338.228 C 303.799 337.778,305.500 336.216,305.500 335.933 C 305.500 335.814,305.795 335.330,306.155 334.858 C 306.515 334.386,306.753 334.000,306.684 334.000 C 306.616 334.000,306.265 334.386,305.905 334.858 M150.875 336.000 C 150.960 336.137,151.143 336.250,151.281 336.250 C 151.420 336.250,151.920 336.545,152.392 336.905 C 152.864 337.265,153.250 337.499,153.250 337.426 C 153.250 337.238,151.196 335.750,150.936 335.750 C 150.817 335.750,150.790 335.863,150.875 336.000 M154.000 337.929 C 154.206 338.005,154.600 338.171,154.875 338.298 C 155.367 338.524,155.367 338.521,154.890 338.139 C 154.623 337.925,154.229 337.759,154.015 337.770 C 153.678 337.787,153.676 337.808,154.000 337.929 M155.875 338.860 C 156.523 339.147,158.056 339.457,157.854 339.261 C 157.728 339.139,157.175 338.974,156.625 338.894 C 156.075 338.814,155.738 338.799,155.875 338.860 M159.156 339.753 C 159.313 339.912,160.524 340.077,161.906 340.128 L 164.375 340.219 162.056 340.009 C 160.781 339.893,159.544 339.725,159.306 339.635 C 158.986 339.513,158.947 339.543,159.156 339.753 M299.500 339.750 C 299.156 339.860,298.363 339.961,297.738 339.975 C 297.112 339.989,296.487 340.113,296.349 340.251 C 296.182 340.418,274.088 340.481,230.323 340.438 C 194.147 340.404,164.600 340.459,164.664 340.563 C 164.827 340.826,296.191 340.798,296.354 340.535 C 296.427 340.416,297.231 340.260,298.141 340.187 C 299.051 340.114,299.921 339.929,300.073 339.777 C 300.381 339.469,300.378 339.469,299.500 339.750 " stroke="none" fill="#7c7494" fill-rule="evenodd"></path></g></svg>