<svg width="810" height="808" viewBox="0 0 810 808" fill="none" xmlns="http://www.w3.org/2000/svg">
<g filter="url(#filter0_f_5_26)">
<path fill-rule="evenodd" clip-rule="evenodd" d="M336.385 232.604C359.166 234.367 380.088 243.533 399.307 254.984C417.882 266.052 432.701 280.853 445.414 297.57C459.066 315.523 476.786 333.862 475.973 355.799C475.163 377.68 454.733 393.818 441.183 411.769C428.714 428.291 417.208 445.212 399.567 457.03C380.699 469.671 359.671 482.602 336.385 481.978C313.226 481.358 294.518 465.647 275.283 453.699C257.156 442.441 239.813 430.593 227.158 414.135C213.661 396.584 199.861 377.337 200.001 355.799C200.14 334.291 216.57 316.642 227.911 297.866C239.408 278.833 247.32 256.64 267.078 244.753C287.131 232.688 312.547 230.759 336.385 232.604Z" fill="#6AFFB8"/>
</g>
<g filter="url(#filter1_f_5_26)">
<path fill-rule="evenodd" clip-rule="evenodd" d="M458.457 324.093C482.834 323.361 507.273 326.854 529.049 337.847C551.523 349.192 572.084 365.486 584.203 387.569C596.219 409.464 598.479 435.368 596.222 460.247C594.08 483.852 583.144 504.947 571.67 525.68C560.023 546.726 548.959 569.108 528.761 582.147C508.174 595.436 482.913 600.164 458.457 598.763C434.697 597.402 413.702 585.462 392.651 574.349C370.875 562.854 345.765 553.834 333.2 532.641C320.603 511.395 325.162 484.953 325 460.247C324.837 435.388 320.235 409.058 332.246 387.301C344.314 365.44 367.955 353.188 390.268 342.013C411.649 331.306 434.561 324.811 458.457 324.093Z" fill="#6AFFFF"/>
</g>
<g filter="url(#filter2_f_5_26)">
<path fill-rule="evenodd" clip-rule="evenodd" d="M472.57 200.617C497.627 201.744 521.823 207.964 544.065 219.529C566.965 231.437 590.644 245.332 602.533 268.197C614.282 290.79 608.777 317.583 608.286 343.03C607.804 368.015 611.477 394.173 599.678 416.219C587.75 438.505 565.87 453.8 543.089 464.845C521.218 475.449 496.87 478.792 472.57 477.848C448.889 476.927 425.737 471.199 405.155 459.483C384.512 447.731 368.395 430.29 354.833 410.823C340.393 390.095 323.209 368.257 324.028 343.03C324.844 317.912 346.824 299.642 359.157 277.727C371.659 255.513 376.146 227.272 397.25 212.923C418.636 198.383 446.714 199.453 472.57 200.617Z" fill="#6AA6FF"/>
</g>
<g filter="url(#filter3_f_5_26)">
<path fill-rule="evenodd" clip-rule="evenodd" d="M234.841 309.986C243.099 284.233 254.48 257.56 275.085 241.605C295.162 226.059 320.977 230.141 344.619 224.983C367.502 219.991 389.796 207.59 412.258 211.679C435.995 215.999 457.282 229.646 473.379 248.42C489.79 267.56 503.092 291.721 504.064 318.751C505.006 344.934 489.75 368.873 478.578 392.992C468.534 414.673 457.727 435.432 441.965 452.812C425.355 471.127 407.324 489.317 385.007 496.167C362.265 503.146 339.034 497.846 317.087 491.137C294.687 484.29 272.485 475.195 256.785 456.97C240.793 438.407 232.012 413.66 228.169 387.919C224.325 362.171 226.684 335.427 234.841 309.986Z" fill="#6ADBFF"/>
</g>
<g filter="url(#filter4_f_5_26)">
<path fill-rule="evenodd" clip-rule="evenodd" d="M317.168 381.504C335.917 382.424 354.022 387.503 370.664 396.947C387.799 406.67 405.517 418.016 414.413 436.686C423.204 455.135 419.085 477.012 418.717 497.791C418.357 518.192 421.105 539.552 412.276 557.553C403.351 575.75 386.98 588.239 369.934 597.258C353.568 605.917 335.351 608.647 317.168 607.876C299.449 607.124 282.125 602.447 266.724 592.88C251.278 583.284 239.219 569.043 229.071 553.147C218.266 536.221 205.408 518.389 206.021 497.791C206.632 477.281 223.078 462.362 232.307 444.468C241.661 426.329 245.018 403.269 260.81 391.552C276.811 379.68 297.821 380.554 317.168 381.504Z" fill="#6AA6FF"/>
</g>
<path d="M340.229 174.125C310.315 174.116 280.882 181.655 254.655 196.043C228.428 210.43 206.255 231.203 190.188 256.436C174.121 281.67 164.68 310.549 162.739 340.4C160.798 370.251 166.42 400.11 179.084 427.211C173.116 451.911 167.733 476.749 162.938 501.703C162.209 505.467 162.407 509.353 163.515 513.024C164.624 516.694 166.61 520.04 169.301 522.771C171.993 525.502 175.309 527.537 178.963 528.699C182.617 529.861 186.499 530.116 190.274 529.442C205.044 526.834 237.169 520.907 266.994 514.031C291.168 524.932 317.474 530.288 343.986 529.707C370.498 529.126 396.544 522.622 420.217 510.672C443.89 498.722 464.591 481.629 480.802 460.643C497.014 439.658 508.327 415.312 513.913 389.389C519.498 363.466 519.214 336.621 513.083 310.822C506.951 285.022 495.126 260.921 478.474 240.283C461.823 219.645 440.766 202.992 416.845 191.545C392.925 180.098 366.747 174.146 340.229 174.125V174.125ZM339.328 553.458C372.177 583.999 415.388 600.944 460.241 600.875C486.32 600.875 511.095 595.256 533.452 585.156C558.18 590.941 585.279 596.726 602.515 600.33C607.367 601.348 612.398 601.127 617.142 599.686C621.886 598.245 626.191 595.632 629.658 592.087C633.124 588.542 635.642 584.181 636.976 579.405C638.311 574.63 638.421 569.596 637.295 564.767C633.454 548.1 627.385 522.211 621.386 498.313C631.924 475.741 637.603 451.209 638.056 426.303C638.509 401.397 633.727 376.674 624.018 353.734C614.309 330.794 599.891 310.149 581.696 293.136C563.501 276.122 541.936 263.12 518.397 254.97C526.81 270.259 533.186 286.582 537.364 303.525C557.354 316.41 573.791 334.105 585.169 354.99C596.547 375.874 602.503 399.28 602.491 423.062C602.491 446.581 596.801 468.701 586.725 488.189L583.643 494.187L585.302 500.731C590.708 521.95 596.374 545.777 600.523 563.558C582.173 559.694 557.421 554.312 535.562 549.096L529.303 547.626L523.542 550.495C504.481 559.978 483.001 565.312 460.241 565.312C436.011 565.358 412.176 559.187 391.012 547.389C374.118 551.633 356.746 553.673 339.328 553.458V553.458Z" fill="white" fill-opacity="0.65"/>
<defs>
<filter id="filter0_f_5_26" x="0" y="32" width="676" height="650" filterUnits="userSpaceOnUse" color-interpolation-filters="sRGB">
<feFlood flood-opacity="0" result="BackgroundImageFix"/>
<feBlend mode="normal" in="SourceGraphic" in2="BackgroundImageFix" result="shape"/>
<feGaussianBlur stdDeviation="100" result="effect1_foregroundBlur_5_26"/>
</filter>
<filter id="filter1_f_5_26" x="124" y="124" width="673" height="675" filterUnits="userSpaceOnUse" color-interpolation-filters="sRGB">
<feFlood flood-opacity="0" result="BackgroundImageFix"/>
<feBlend mode="normal" in="SourceGraphic" in2="BackgroundImageFix" result="shape"/>
<feGaussianBlur stdDeviation="100" result="effect1_foregroundBlur_5_26"/>
</filter>
<filter id="filter2_f_5_26" x="124" y="0" width="686" height="678" filterUnits="userSpaceOnUse" color-interpolation-filters="sRGB">
<feFlood flood-opacity="0" result="BackgroundImageFix"/>
<feBlend mode="normal" in="SourceGraphic" in2="BackgroundImageFix" result="shape"/>
<feGaussianBlur stdDeviation="100" result="effect1_foregroundBlur_5_26"/>
</filter>
<filter id="filter3_f_5_26" x="26.3698" y="10.8653" width="677.736" height="688.59" filterUnits="userSpaceOnUse" color-interpolation-filters="sRGB">
<feFlood flood-opacity="0" result="BackgroundImageFix"/>
<feBlend mode="normal" in="SourceGraphic" in2="BackgroundImageFix" result="shape"/>
<feGaussianBlur stdDeviation="100" result="effect1_foregroundBlur_5_26"/>
</filter>
<filter id="filter4_f_5_26" x="6" y="181" width="614" height="627" filterUnits="userSpaceOnUse" color-interpolation-filters="sRGB">
<feFlood flood-opacity="0" result="BackgroundImageFix"/>
<feBlend mode="normal" in="SourceGraphic" in2="BackgroundImageFix" result="shape"/>
<feGaussianBlur stdDeviation="100" result="effect1_foregroundBlur_5_26"/>
</filter>
</defs>
</svg>
