<svg id="svg" xmlns="http://www.w3.org/2000/svg" viewBox="0 0 400 363.66"><defs><style>.cls-1{fill:#22003f;}.cls-2{fill:#fff;fill-rule:evenodd;}</style></defs><path class="cls-1" d="M50,26.34c-27.61,0-50,21.23-50,47.43V263.51C0,289.71,22.39,311,50,311h62.5a25.48,25.48,0,0,1,20,9.48L180,380.51c8.28,10.48,23.95,12.6,35,4.75a24.26,24.26,0,0,0,5-4.75l47.5-60.08a25.48,25.48,0,0,1,20-9.48H350c27.61,0,50-21.24,50-47.44V73.77c0-26.2-22.39-47.43-50-47.43Z" transform="translate(0 -26.34)"/><g id="svgg"><path id="path0" class="cls-2" d="M251.11,60c-3.67,1.2-7.43,4.83-77.7,75.17-72.28,72.34-73.5,73.61-74.55,77.56-.79,3-5.86,42.74-5.86,46a14.49,14.49,0,0,0,14.78,14.75c3.66,0,43.63-5.19,46.4-6,3.81-1.14,6.69-3.92,78.07-75.37,82.26-82.34,74.56-73.86,74.56-82,0-7.71.75-6.71-21.67-29.08-21.86-21.81-21-21.17-28.07-21.37a20.31,20.31,0,0,0-6,.45m19.12,36.41L283.81,110l-10.44,10.45-10.45,10.45-13.69-13.69-13.69-13.69,10.34-10.35c5.69-5.69,10.44-10.34,10.56-10.34s6.32,6.11,13.79,13.58m-35.94,36L247.87,146l-50.64,50.64-50.64,50.63L131,249.31c-8.56,1.13-15.64,2-15.73,1.88s.76-7.18,1.89-15.75l2-15.59,50.52-50.52c27.79-27.78,50.62-50.52,50.73-50.52s6.33,6.12,13.8,13.59" transform="translate(0 -26.34)"/></g></svg>